<svg xmlns="http://www.w3.org/2000/svg" xmlns:xlink="http://www.w3.org/1999/xlink" width="379.798" height="388.046" viewBox="0 0 379.798 388.046"><defs><style>.a{fill:#f2e1d2;}.b{fill:#fff;}.c{fill:#d8dee8;}.d,.i{opacity:0.3;mix-blend-mode:multiply;isolation:isolate;}.d{fill:url(#a);}.e{fill:url(#c);}.f{fill:url(#d);}.g{fill:url(#e);}.h{fill:url(#i);}.i{fill:url(#j);}</style><linearGradient id="a" y1="0.5" x2="1" y2="0.5" gradientUnits="objectBoundingBox"><stop offset="0" stop-color="#cbaf85"/><stop offset="1" stop-color="#ba7c44"/></linearGradient><linearGradient id="c" y1="0.5" x2="1" y2="0.5" gradientUnits="objectBoundingBox"><stop offset="0" stop-color="#96888e"/><stop offset="1" stop-color="#706369"/></linearGradient><linearGradient id="d" y1="0.5" x2="1" y2="0.5" gradientUnits="objectBoundingBox"><stop offset="0" stop-color="#d3c5cb"/><stop offset="1" stop-color="#ada0a6"/></linearGradient><linearGradient id="e" x1="-8.396" y1="0.5" x2="9.396" y2="0.5" xlink:href="#c"/><linearGradient id="i" x1="-4.866" y1="0.5" x2="-3.866" y2="0.5" gradientUnits="objectBoundingBox"><stop offset="0" stop-color="#f6af9a"/><stop offset="0.996" stop-color="#f89f8a"/></linearGradient><linearGradient id="j" x1="-0.511" y1="0.5" x2="0.489" y2="0.5" xlink:href="#i"/></defs><g transform="translate(-252.557 -190.232)"><path class="a" d="M613.6,450.994c-18.753,49.9-57.64,76.088-72.525,84.925-76.692,45.53-191.816,31.61-250.664-41.443C252.722,447.7,252.23,394.159,252.614,378.911c2.082-82.788,63.068-174,152.991-187.07,99.543-14.468,167.9,73.11,174.534,81.911C588.168,284.406,646.242,364.12,613.6,450.994Z" transform="translate(0 0)"/><g transform="translate(268.484 243.12)"><path class="b" d="M411.113,324.489C399.289,313,373.375,300.1,351.32,302.712c-39.393,4.666-76.675,30.332-61.551,121.716,14.763,89.206,23.658,213.1,67.53,213.1,26.027,0,36.579-22.554,41.855-43.165s13.013-53.275,26.027-53.664,19.7,31.842,23.917,51.674,10.605,45.219,30.626,43.219,44.29-47.062,57.3-119.781,37.634-186.658-23.917-206.879C466.7,293.685,448.747,361.043,411.113,324.489Z" transform="translate(-286.327 -302.371)"/><path class="c" d="M591.191,351.172c13.755-2.28,19.269-16.723,32.359-29.554a76.849,76.849,0,0,1,5.846-5.176c-26.906,9.211-43.975,41.156-71.147,18.6C567.331,344.556,579.032,353.187,591.191,351.172Z" transform="translate(-430.002 -309.806)"/><path class="c" d="M483.567,610.262c-25.239-8.473-13.82-85.461-46.427-104.949C413.2,491,389.861,516.416,369.61,498.7c-10.009-8.755-7.212-17.5-16.355-50.747C336.876,388.4,316.766,375.6,324.59,350.932c6.1-19.242,23.116-28.975,29.544-32.665a64.487,64.487,0,0,1,34.664-8.343c-11.607-5.281-25.146-8.673-37.478-7.212-39.393,4.666-76.675,30.332-61.551,121.716,14.763,89.206,23.658,213.1,67.53,213.1,26.027,0,36.579-22.554,41.855-43.165s13.013-53.275,26.027-53.664,19.7,31.842,23.917,51.674,10.605,45.219,30.626,43.219c12.463-1.244,25.741-16.34,37.5-47.33C509.051,609.8,491.318,612.864,483.567,610.262Z" transform="translate(-286.327 -302.371)"/></g><g transform="translate(268.484 243.12)"><path class="b" d="M411.113,324.489C399.289,313,373.375,300.1,351.32,302.712c-39.393,4.666-76.675,30.332-61.551,121.716,14.763,89.206,23.658,213.1,67.53,213.1,26.027,0,36.579-22.554,41.855-43.165s13.013-53.275,26.027-53.664,19.7,31.842,23.917,51.674,10.605,45.219,30.626,43.219,44.29-47.062,57.3-119.781,37.634-186.658-23.917-206.879C466.7,293.685,448.747,361.043,411.113,324.489Z" transform="translate(-286.327 -302.371)"/><path class="d" d="M591.191,351.172c13.755-2.28,19.269-16.723,32.359-29.554a76.849,76.849,0,0,1,5.846-5.176c-26.906,9.211-43.975,41.156-71.147,18.6C567.331,344.556,579.032,353.187,591.191,351.172Z" transform="translate(-430.002 -309.806)"/><path class="d" d="M483.567,610.262c-25.239-8.473-13.82-85.461-46.427-104.949C413.2,491,389.861,516.416,369.61,498.7c-10.009-8.755-7.212-17.5-16.355-50.747C336.876,388.4,316.766,375.6,324.59,350.932c6.1-19.242,23.116-28.975,29.544-32.665a64.487,64.487,0,0,1,34.664-8.343c-11.607-5.281-25.146-8.673-37.478-7.212-39.393,4.666-76.675,30.332-61.551,121.716,14.763,89.206,23.658,213.1,67.53,213.1,26.027,0,36.579-22.554,41.855-43.165s13.013-53.275,26.027-53.664,19.7,31.842,23.917,51.674,10.605,45.219,30.626,43.219c12.463-1.244,25.741-16.34,37.5-47.33C509.051,609.8,491.318,612.864,483.567,610.262Z" transform="translate(-286.327 -302.371)"/></g><g transform="translate(270.727 194.106)"><g transform="translate(0)"><g transform="translate(0 142.196)"><g transform="translate(0 56.595)"><path class="e" d="M487.668,620.262,294.329,783.82c1.954,4.121,5.381,7.208,8.683,10.407l193.413-163.62Z" transform="translate(-292.799 -620.112)"/><path class="f" d="M703.993,620.094c-.816.691.482,3.567,2.9,6.423s5.04,4.613,5.856,3.922-.483-3.567-2.9-6.423S704.809,619.4,703.993,620.094Z" transform="translate(-509.123 -619.943)"/><ellipse class="c" cx="1.936" cy="6.777" rx="1.936" ry="6.777" transform="translate(0 164.997) rotate(-40.248)"/></g><g transform="translate(197.916)"><rect class="g" width="4.149" height="93.203" transform="matrix(-0.646, -0.763, 0.763, -0.646, 2.755, 63.431)"/><path class="c" d="M861.634,499.992c-.25.211.148,1.092.888,1.966s1.543,1.412,1.793,1.2-.148-1.092-.888-1.966S861.884,499.78,861.634,499.992Z" transform="translate(-790.421 -499.946)"/><path class="f" d="M710.8,627.672c-.249.211.148,1.092.888,1.966s1.543,1.412,1.793,1.2-.148-1.092-.888-1.966S711.05,627.46,710.8,627.672Z" transform="translate(-710.725 -567.408)"/></g></g><g transform="translate(229.483)"><ellipse class="e" cx="63.894" cy="78.899" rx="63.894" ry="78.899" transform="translate(4.356)"/><ellipse class="f" cx="63.894" cy="78.899" rx="63.894" ry="78.899"/><path class="h" d="M857.274,349.728c.59,0,3.447,7.089,4.034,7.067,31.749-1.175,57.288-33.931,57.288-74.026,0-40.836-26.491-74.059-59.053-74.059a50.065,50.065,0,0,0-30.095,10.357c-17.325,12.922-17.74,36.64-17.74,63.7C811.707,323.605,824.712,349.728,857.274,349.728Z" transform="translate(-795.648 -203.87)"/><path class="b" d="M870.551,265.614c-3.129-15.643-38.493-34.14-53.669-34.934-17.325,12.922-28.961,36.636-28.961,63.7,0,40.836,26.492,74.058,59.053,74.058.591,0,1.179-.014,1.765-.036C871.178,312.617,875.007,287.9,870.551,265.614Z" transform="translate(-783.081 -215.478)"/><path class="i" d="M865.126,265.586c-9.471,11.117-28.076,9.614-35.819,26.139-7.642,16.307,5.3,28.819.968,44.532a29.055,29.055,0,0,1-8.514,13.472c-19.984-11.883-33.84-37.428-33.84-66.958,0-40.836,26.492-74.059,59.053-74.059a47.823,47.823,0,0,1,15.682,2.655C874.224,241.078,872.417,257.03,865.126,265.586Z" transform="translate(-783.081 -203.87)"/></g></g></g></g></svg>