<svg xmlns="http://www.w3.org/2000/svg" xmlns:xlink="http://www.w3.org/1999/xlink" width="400.9" height="399.494" viewBox="0 0 400.9 399.494"><defs><style>.a{fill:#f2e1d2;}.b,.f{fill:url(#a);}.c{fill:url(#b);}.d,.h,.i{fill:#fff;}.e{fill:url(#c);}.f{opacity:0.25;mix-blend-mode:multiply;}.f,.h{isolation:isolate;}.g{fill:url(#e);}.h{opacity:0.5;mix-blend-mode:soft-light;}.i{opacity:0.51;}.j{fill:url(#g);}</style><linearGradient id="a" y1="0.5" x2="1" y2="0.5" gradientUnits="objectBoundingBox"><stop offset="0" stop-color="#96888e"/><stop offset="1" stop-color="#706369"/></linearGradient><linearGradient id="b" y1="0.5" x2="1" y2="0.5" gradientUnits="objectBoundingBox"><stop offset="0" stop-color="#d3c5cb"/><stop offset="1" stop-color="#ada0a6"/></linearGradient><linearGradient id="c" x1="0.625" y1="0.745" x2="0.096" y2="-0.236" gradientUnits="objectBoundingBox"><stop offset="0" stop-color="#e4d6ca"/><stop offset="1" stop-color="#d4bdac"/></linearGradient><linearGradient id="e" y1="0.5" x2="1" y2="0.5" gradientUnits="objectBoundingBox"><stop offset="0" stop-color="#5d535a"/><stop offset="1" stop-color="#464143"/></linearGradient><linearGradient id="g" x1="0.523" y1="0.051" x2="0.195" y2="2.367" gradientUnits="objectBoundingBox"><stop offset="0" stop-color="#cbaf85"/><stop offset="1" stop-color="#ba7c44"/></linearGradient></defs><g transform="translate(-2441.391 -199.977)"><path class="a" d="M2490.808,522.814c84.908,97.89,265.1,87.819,328-11.333,44.583-70.275,21.41-171.374-33.611-231.8-70.187-77.081-208.528-105.915-290.331-27.494C2420.007,323.948,2428.514,451,2490.808,522.814Z" transform="translate(0 -2.892)"/><g transform="translate(2501.847 199.977)"><g transform="translate(0)"><path class="b" d="M2838.506,283.15l-264.393-15.476c-6.09-.3-11.572,6.423-11.572,12.069V624.235c0,7.83,7.9,9.406,13.994,8.777l261.971-27.072a10.02,10.02,0,0,0,8.648-9.9V292.582A9.373,9.373,0,0,0,2838.506,283.15Z" transform="translate(-2562.542 -233.887)"/><path class="c" d="M2847.221,279.96,2582.3,266.773c-6.089-.3-11.048,4.062-11.048,9.752V623.71c0,5.69,4.96,9.786,11.048,9.152l264.916-27.59a10.071,10.071,0,0,0,8.649-9.976V289.465A9.417,9.417,0,0,0,2847.221,279.96Z" transform="translate(-2566.908 -233.433)"/><path class="d" d="M2587.41,632.888c-3.284.336-5.963-1.885-5.963-4.951V281.491a5.461,5.461,0,0,1,5.963-5.276l264.916,12.662a5.1,5.1,0,0,1,4.687,5.142V600.426a5.452,5.452,0,0,1-4.687,5.4Z" transform="translate(-2572.013 -238.167)"/><path class="e" d="M2862.58,621.562,2636,643.652V324.026l226.583,8.635Z" transform="translate(-2599.342 -262.123)"/><path class="f" d="M2817.535,310.269l-90.555,1.146,2.031-20.664a5.578,5.578,0,0,1,4.6-5.282l15.336-2.385a5.526,5.526,0,0,0,4.15-3.222l1.663-3.654,40.113,2.506Z" transform="translate(-2644.923 -238.167)"/><path class="g" d="M2865.892,258.672a4.865,4.865,0,0,0-4.613-4.084l-14.47-.656c-6.567-.3-11.382-5.7-11.142-12.535l.559-15.847a5.121,5.121,0,0,0-4.808-5.451l-4.754-.287a6.074,6.074,0,0,1-5.53-7.192A10.834,10.834,0,0,0,2811.186,200a13.069,13.069,0,0,0-13.458,11.169,7.478,7.478,0,0,1-7.678,6.426l-4.9-.3a6.512,6.512,0,0,0-6.548,4.9l-4.078,16.085a15.6,15.6,0,0,1-15.479,11.663l-15.873-.72a6.883,6.883,0,0,0-6.348,3.819l-9.564,19.2a2.222,2.222,0,0,0,1.888,3.329l137.65,4.626a2.578,2.578,0,0,0,2.508-2.98Zm-56.658-44.953a3.179,3.179,0,0,1-2.936-3.725,3.828,3.828,0,0,1,3.933-3.283,3.178,3.178,0,0,1,2.925,3.724A3.83,3.83,0,0,1,2809.234,213.719Z" transform="translate(-2644.923 -199.977)"/><path class="b" d="M2867.526,259.533a4.866,4.866,0,0,0-4.613-4.085l-14.47-.656c-6.567-.3-11.382-5.7-11.142-12.535l.559-15.846a5.121,5.121,0,0,0-4.807-5.451l-4.754-.287a6.074,6.074,0,0,1-5.53-7.192,10.834,10.834,0,0,0-9.949-12.616,13.068,13.068,0,0,0-13.458,11.168,7.479,7.479,0,0,1-7.679,6.426l-4.9-.3a6.512,6.512,0,0,0-6.548,4.9l-4.077,16.085a15.6,15.6,0,0,1-15.479,11.663l-15.873-.72a6.884,6.884,0,0,0-6.348,3.819l-9.565,19.2a2.222,2.222,0,0,0,1.889,3.329l137.65,4.626a2.578,2.578,0,0,0,2.507-2.98Zm-56.658-44.953a3.179,3.179,0,0,1-2.937-3.725,3.83,3.83,0,0,1,3.934-3.284,3.18,3.18,0,0,1,2.925,3.725A3.831,3.831,0,0,1,2810.868,214.58Z" transform="translate(-2645.741 -200.408)"/><g transform="translate(82.872 25.326)"><path class="h" d="M2843.969,293.352c-12.279-7.67-21.7-2.232-29.353-10.882-8.192-9.261-2.667-21.452-11.143-27.2-5.427-3.683-10.268-.435-16.579-1.432a17.3,17.3,0,0,1-7.34-3.106l-3.4,13.415a15.6,15.6,0,0,1-15.479,11.663l-15.873-.72a6.886,6.886,0,0,0-6.348,3.819l-9.565,19.2a2.222,2.222,0,0,0,1.889,3.329l125.1,4.2A37.56,37.56,0,0,0,2843.969,293.352Z" transform="translate(-2728.614 -250.728)"/></g></g><g transform="translate(45.58 91.502)"><g transform="translate(5.722)"><g transform="translate(100.307)"><path class="d" d="M2867.306,523.815a.948.948,0,0,1-.948-.947V384.289a.947.947,0,0,1,.283-.674.93.93,0,0,1,.677-.273l97.386,1.291a.947.947,0,0,1,.936.947V520.162a.948.948,0,0,1-.921.947l-97.387,2.705Zm.947-138.566V521.894l95.492-2.653V386.515Z" transform="translate(-2866.359 -383.341)"/><g transform="translate(16.919 13.472)"><path class="d" d="M3012.319,506.1s1.206-4.061,4.017-4.478,5.207-.83,6.006,2,0,6.065-5.2,6.5C3011.917,510.562,3012.319,506.1,3012.319,506.1Z" transform="translate(-2956.398 -455.92)"/><path class="d" d="M3017.43,482.94s2.8-1.217,3.6,1.209.8,5.256-2,6.883-6.018,1.239-6.822-2.408S3015.024,483.348,3017.43,482.94Z" transform="translate(-2956.29 -446.557)"/><path class="d" d="M3007.49,470.576c-.794-1.329-1.611-4.871.805-6.492,3.156-2.117,4.822-2.83,6.426-1.207s3.417,6.236.8,8.5C3012.716,473.814,3009.275,473.564,3007.49,470.576Z" transform="translate(-2953.581 -436.214)"/><path class="d" d="M3006.169,456.184a2.382,2.382,0,0,1-1.886-.529,2.684,2.684,0,0,1-.871-1.407c-.4-1.625,2.418-4.458,4.832-5.261s5.169,2.005,3.213,4.469C3009.979,455.315,3008.842,455.806,3006.169,456.184Z" transform="translate(-2951.919 -429.631)"/><path class="d" d="M2998.161,443.123s-1.212-2.85.4-4.874,2.823-3.234,4.837-2.41,4.02,3.671,1.609,5.688S2999.775,445.161,2998.161,443.123Z" transform="translate(-2949.09 -422.983)"/><path class="d" d="M2992.029,431.84a1.433,1.433,0,0,1-.974-.867,5.13,5.13,0,0,1,.329-4.528c1.588-2.783,2.381-3.575,4.364-2.363s2.771,2.412,2.374,3.6-2.374,3.175-3.563,3.967A3.316,3.316,0,0,1,2992.029,431.84Z" transform="translate(-2945.559 -416.948)"/><path class="d" d="M2981.519,417s.844-2.112,3.374-.395,3.367,2.145,2.526,3.407-2.526,4.216-5.056,3.776S2979.83,419.53,2981.519,417Z" transform="translate(-2940.381 -413.14)"/><path class="d" d="M2969.437,419.03c-1.222-.009-1.629-.828-2.036-2.465s-.408-4.9,0-5.716,2.036-.388,3.664.035,3.25.846,3.25,1.661S2973.582,419.06,2969.437,419.03Z" transform="translate(-2933.745 -410.363)"/><path class="d" d="M2910.9,506.581s-1.24-4.107-4.137-4.506-5.394-.8-6.225,2.087,0,6.186,5.4,6.563C2911.317,511.1,2910.9,506.581,2910.9,506.581Z" transform="translate(-2900.264 -456.156)"/><path class="d" d="M2906.573,483.078s-2.9-1.233-3.735,1.242-.831,5.362,2.076,7,6.213,1.211,7.04-2.493S2909.058,483.486,2906.573,483.078Z" transform="translate(-2901.314 -446.626)"/><path class="d" d="M2916.042,470.5c.814-1.346,1.65-4.929-.825-6.575-3.245-2.157-4.962-2.888-6.62-1.244s-3.54,6.342-.829,8.648C2910.668,473.8,2914.21,473.531,2916.042,470.5Z" transform="translate(-2903.339 -436.111)"/><path class="d" d="M2918.874,455.922a2.455,2.455,0,0,0,1.933-.528,2.694,2.694,0,0,0,.89-1.419c.412-1.641-2.474-4.526-4.952-5.357s-5.332,2-3.31,4.514C2914.957,455.027,2916.128,455.53,2918.874,455.922Z" transform="translate(-2906.518 -429.441)"/><path class="d" d="M2927.456,442.773s1.234-2.866-.412-4.925-2.884-3.3-4.946-2.491-4.133,3.678-1.652,5.746S2925.809,444.819,2927.456,442.773Z" transform="translate(-2909.807 -422.746)"/><path class="d" d="M2934.6,431.465a1.428,1.428,0,0,0,.989-.863,5.143,5.143,0,0,0-.333-4.565c-1.614-2.829-2.421-3.64-4.44-2.448s-2.833,2.4-2.427,3.61,2.427,3.239,3.639,4.051A3.409,3.409,0,0,0,2934.6,431.465Z" transform="translate(-2914.302 -416.71)"/><path class="d" d="M2945.433,416.7s-.853-2.137-3.413-.455-3.42,2.1-2.564,3.391,2.564,4.283,5.124,3.873S2947.136,419.27,2945.433,416.7Z" transform="translate(-2919.738 -412.974)"/><path class="d" d="M2957.81,418.972c1.224.009,1.632-.8,2.039-2.435s.407-4.9,0-5.717-2.039-.428-3.673-.035-3.272.787-3.272,1.605S2953.642,418.943,2957.81,418.972Z" transform="translate(-2926.635 -410.338)"/><path class="d" d="M3012.319,531.07s1.206,4.043,4.017,4.419,5.207.754,6.006-2.084,0-6.065-5.2-6.429C3011.917,526.612,3012.319,531.07,3012.319,531.07Z" transform="translate(-2956.398 -468.761)"/><path class="d" d="M3017.43,553.671s2.8,1.177,3.6-1.261.8-5.267-2-6.854-6.018-1.151-6.822,2.508S3015.024,553.3,3017.43,553.671Z" transform="translate(-2956.29 -477.642)"/><path class="d" d="M3007.49,564.43c-.794,1.341-1.611,4.895.805,6.481,3.156,2.071,4.822,2.759,6.426,1.113s3.417-6.286.8-8.514C3012.716,561.116,3009.275,561.416,3007.49,564.43Z" transform="translate(-2953.581 -486.276)"/><path class="d" d="M3006.169,582.572a2.409,2.409,0,0,0-1.886.556,2.739,2.739,0,0,0-.871,1.42c-.4,1.632,2.418,4.423,4.832,5.191s5.169-2.08,3.213-4.516C3009.979,583.385,3008.842,582.911,3006.169,582.572Z" transform="translate(-2951.919 -496.615)"/><path class="d" d="M2998.161,594.621s-1.212,2.868.4,4.869,2.823,3.193,4.837,2.339,4.02-3.729,1.609-5.711S2999.775,592.56,2998.161,594.621Z" transform="translate(-2949.09 -502.175)"/><path class="d" d="M2992.029,606.007a1.462,1.462,0,0,0-.974.881,5.12,5.12,0,0,0,.329,4.523c1.588,2.76,2.381,3.541,4.364,2.3s2.771-2.452,2.374-3.639-2.374-3.141-3.563-3.915A3.308,3.308,0,0,0,2992.029,606.007Z" transform="translate(-2945.559 -508.275)"/><path class="d" d="M2981.519,621.572s.844,2.1,3.374.346,3.367-2.194,2.526-3.444-2.526-4.179-5.056-3.7S2979.83,619.066,2981.519,621.572Z" transform="translate(-2940.381 -512.73)"/><path class="d" d="M2969.437,618.975c-1.222.026-1.629.852-2.036,2.494s-.408,4.909,0,5.716,2.036.359,3.664-.088,3.25-.893,3.25-1.708S2973.582,618.886,2969.437,618.975Z" transform="translate(-2933.745 -514.861)"/><path class="d" d="M2910.9,531.906s-1.24,4.124-4.137,4.566-5.394.881-6.225-2,0-6.186,5.4-6.641C2911.317,527.38,2910.9,531.906,2910.9,531.906Z" transform="translate(-2900.264 -469.185)"/><path class="d" d="M2906.573,554.972s-2.9,1.275-3.735-1.187-.831-5.35,2.076-7.031,6.213-1.3,7.04,2.391S2909.058,554.528,2906.573,554.972Z" transform="translate(-2901.314 -478.202)"/><path class="d" d="M2916.042,565.654c.814,1.334,1.65,4.9-.825,6.587-3.245,2.2-4.962,2.96-6.62,1.34s-3.54-6.292-.829-8.636C2910.668,562.436,2914.21,562.649,2916.042,565.654Z" transform="translate(-2903.339 -486.928)"/><path class="d" d="M2918.874,583.924a2.432,2.432,0,0,1,1.933.5,2.641,2.641,0,0,1,.89,1.406c.412,1.635-2.474,4.561-4.952,5.429s-5.332-1.92-3.31-4.467C2914.957,584.876,2916.128,584.357,2918.874,583.924Z" transform="translate(-2906.518 -497.286)"/><path class="d" d="M2927.456,595.825s1.234,2.848-.412,4.931-2.884,3.342-4.946,2.563-4.133-3.619-1.652-5.722S2925.809,593.8,2927.456,595.825Z" transform="translate(-2909.807 -502.809)"/><path class="d" d="M2934.6,607.09a1.4,1.4,0,0,1,.989.848,5.152,5.152,0,0,1-.333,4.57c-1.614,2.852-2.421,3.676-4.44,2.513s-2.833-2.357-2.427-3.575,2.427-3.274,3.639-4.1A3.419,3.419,0,0,1,2934.6,607.09Z" transform="translate(-2914.302 -508.84)"/><path class="d" d="M2945.433,622.311s-.853,2.15-3.413.5-3.42-2.054-2.564-3.354,2.564-4.32,5.124-3.948S2947.136,619.718,2945.433,622.311Z" transform="translate(-2919.738 -513.112)"/><path class="d" d="M2957.81,619.171c1.224-.026,1.632.781,2.039,2.406s.407,4.891,0,5.717-2.039.458-3.673.088-3.272-.74-3.272-1.558S2953.642,619.261,2957.81,619.171Z" transform="translate(-2926.635 -514.96)"/></g></g><path class="i" d="M2665.349,429.044l88.911.535v-3.832l-88.911-.636Z" transform="translate(-2665.349 -404.268)"/><path class="i" d="M2665.349,446.848l88.911.308v-3.832l-88.911-.409Z" transform="translate(-2665.349 -413.187)"/><path class="i" d="M2665.349,464.652l88.911.081V460.9l-88.911-.182Z" transform="translate(-2665.349 -422.107)"/><path class="i" d="M2665.349,482.411l88.911-.146v-3.832l-88.911.045Z" transform="translate(-2665.349 -430.981)"/><path class="i" d="M2665.349,555.352l88.911-1.089v-3.832l-88.911.988Z" transform="translate(-2665.349 -467.051)"/><path class="i" d="M2665.349,572.928l88.911-1.316v-3.832L2665.349,569Z" transform="translate(-2665.349 -475.743)"/><path class="i" d="M2665.349,590.5l88.911-1.543V585.13l-88.911,1.442Z" transform="translate(-2665.349 -484.434)"/><path class="i" d="M2665.349,608.08l88.911-1.77v-3.832l-88.911,1.669Z" transform="translate(-2665.349 -493.126)"/></g><g transform="translate(0 167.376)"><g transform="translate(77.158)"><path class="d" d="M2840.989,727.082l1.3-.062a2.769,2.769,0,0,0,2.326-1.492h0a12.057,12.057,0,0,1,10.154-6.512l5.61-.25a11.369,11.369,0,0,1,12.191,11.257h0a11.966,11.966,0,0,1-1.376,5.531l-3.309,11.9a46.821,46.821,0,0,0-1.7,14.091l.466,13.974a30.972,30.972,0,0,1-3.068,14.35l-6.485,13.589a6.717,6.717,0,0,1-5.443,3.758h0a5.409,5.409,0,0,1-6.063-5.1L2844.018,766a2.758,2.758,0,0,0-3.029-2.594h0a3.231,3.231,0,0,0-3.037,2.99l-1.581,36.472a6.69,6.69,0,0,1-6.147,6.145h0a5.65,5.65,0,0,1-5.574-2.884l-6.711-12.77a28.367,28.367,0,0,1-3.2-14.2l.488-14.359a44.92,44.92,0,0,0-1.785-14.209l-3.482-11.833a11.2,11.2,0,0,1-1.454-5.539h0c0-6.7,5.73-12.395,12.76-12.708l5.777-.258a11,11,0,0,1,10.312,5.619h0a2.485,2.485,0,0,0,2.335,1.273Z" transform="translate(-2808.502 -718.753)"/><path class="j" d="M2861.44,741.434l-5.525,1.727a20.3,20.3,0,0,1-10.224.513l-5.6-1.182c-13.8-1.2-12.808,8.163-10.828,15.58s0,19.745.989,32.838c.725,9.6,5.7,19.373,8.281,23.874.912,1.589,3.471,1.1,3.991-.75,2.134-7.606-.094-26.166,1.479-35.3,1.383-8.026,4.229-9.111,5.768-9.062a11.189,11.189,0,0,0,2.091-.129c1.535-.239,4.361.492,5.728,8.3,1.552,8.86-.643,27.607,1.455,34.84.511,1.76,3.036,1.829,3.932.1,2.526-4.862,7.34-15.219,8.039-24.748.953-12.985-.953-24.866.953-32.361S2874.82,738.929,2861.44,741.434Z" transform="translate(-2818.327 -729.907)"/></g><path class="i" d="M3015.706,725.113l-57.065,2.747V726l57.065-2.7Z" transform="translate(-2806.561 -721.029)"/><path class="i" d="M3015.706,733.337l-57.065,2.855v-1.864l57.065-2.807Z" transform="translate(-2806.561 -725.149)"/><path class="i" d="M3015.706,741.561l-57.065,2.963V742.66l57.065-2.915Z" transform="translate(-2806.561 -729.27)"/><path class="i" d="M3015.706,749.785l-57.065,3.071v-1.864l57.065-3.024Z" transform="translate(-2806.561 -733.39)"/><path class="i" d="M3015.706,772.537l-57.065,3.37v-1.864l57.065-3.323Z" transform="translate(-2806.561 -744.788)"/><path class="i" d="M3015.706,780.761l-57.065,3.479v-1.864l57.065-3.431Z" transform="translate(-2806.561 -748.908)"/><path class="i" d="M3015.706,788.985l-57.065,3.587v-1.864l57.065-3.539Z" transform="translate(-2806.561 -753.028)"/><path class="i" d="M3015.706,797.209l-57.065,3.695V799.04l57.065-3.647Z" transform="translate(-2806.561 -757.148)"/><path class="i" d="M3015.706,819.961l-57.065,3.994V822.09l57.065-3.946Z" transform="translate(-2806.561 -768.547)"/><path class="i" d="M3015.706,828.185l-57.065,4.1v-1.864l57.065-4.054Z" transform="translate(-2806.561 -772.667)"/><path class="i" d="M3015.706,836.409l-57.065,4.21v-1.864l57.065-4.162Z" transform="translate(-2806.561 -776.787)"/><path class="i" d="M3015.706,844.633l-57.065,4.318v-1.864l57.065-4.27Z" transform="translate(-2806.561 -780.907)"/><path class="i" d="M2718.906,738.895l-65.025,3.13v-1.992l65.025-3.076Z" transform="translate(-2653.881 -727.873)"/><path class="i" d="M2718.906,747.666l-65.025,3.253v-1.992l65.025-3.2Z" transform="translate(-2653.881 -732.268)"/><path class="i" d="M2718.906,756.437l-65.025,3.377v-1.992l65.025-3.322Z" transform="translate(-2653.881 -736.662)"/><path class="i" d="M2718.906,765.209l-65.025,3.5v-1.992l65.025-3.445Z" transform="translate(-2653.881 -741.056)"/><path class="i" d="M2718.906,789.474l-65.025,3.841v-1.992l65.025-3.786Z" transform="translate(-2653.881 -753.213)"/><path class="i" d="M2718.906,798.245l-65.025,3.964v-1.992l65.025-3.909Z" transform="translate(-2653.881 -757.607)"/><path class="i" d="M2718.906,807.016l-65.025,4.087v-1.992l65.025-4.032Z" transform="translate(-2653.881 -762.001)"/><path class="i" d="M2718.906,815.788,2653.881,820v-1.992l65.025-4.156Z" transform="translate(-2653.881 -766.396)"/><path class="i" d="M2718.906,840.053l-65.025,4.551v-1.992l65.025-4.5Z" transform="translate(-2653.881 -778.552)"/><path class="i" d="M2718.906,848.824l-65.025,4.674v-1.992l65.025-4.62Z" transform="translate(-2653.881 -782.946)"/><path class="i" d="M2718.906,857.6l-65.025,4.8V860.4l65.025-4.743Z" transform="translate(-2653.881 -787.34)"/><path class="i" d="M2718.906,866.367l-65.025,4.921V869.3l65.025-4.866Z" transform="translate(-2653.881 -791.735)"/></g><path class="i" d="M2863.459,680.973l-204.5,7.972v-6.964l204.5-7.372Z" transform="translate(-2656.427 -529.262)"/></g></g></g></svg>