<svg xmlns="http://www.w3.org/2000/svg" xmlns:xlink="http://www.w3.org/1999/xlink" width="397.051" height="399.494" viewBox="0 0 397.051 399.494"><defs><style>.a{fill:#f2e1d2;}.b{fill:url(#a);}.c{fill:#fff;}.d{opacity:0.2;fill:url(#b);}.d,.e,.f,.z{mix-blend-mode:multiply;isolation:isolate;}.e,.f,.z{opacity:0.3;}.f{fill:url(#c);}.g{fill:url(#d);}.h{fill:url(#e);}.i{fill:url(#f);}.j{fill:url(#g);}.k{fill:url(#h);}.l{fill:url(#i);}.m{fill:url(#j);}.n{fill:url(#k);}.o{fill:url(#l);}.p{fill:url(#m);}.q{fill:url(#n);}.r{fill:url(#o);}.s{fill:url(#p);}.t{fill:url(#q);}.u{fill:url(#r);}.v{fill:url(#s);}.w{fill:url(#u);}.x{fill:url(#w);}.y{fill:url(#x);}.z{fill:url(#z);}.aa{fill:url(#ab);}.ab{fill:#d8dee8;}.ac{fill:url(#ad);}.ad{fill:url(#ae);}.ae{fill:url(#af);}.af{fill:#f4f7fa;}.ag{fill:url(#ag);}.ah{fill:url(#ai);}.ai{fill:url(#aj);}.aj{fill:url(#ak);}.ak{fill:url(#al);}.al{fill:url(#am);}.am{fill:url(#an);}.an{fill:url(#ao);}.ao{fill:url(#ap);}.ap{fill:url(#aq);}.aq{fill:url(#ar);}</style><linearGradient id="a" x1="2.277" y1="0.5" x2="3.277" y2="0.5" gradientUnits="objectBoundingBox"><stop offset="0" stop-color="#e4d6ca"/><stop offset="1" stop-color="#d4bdac"/></linearGradient><linearGradient id="b" x1="3.343" y1="-0.351" x2="5.424" y2="0.913" gradientUnits="objectBoundingBox"><stop offset="0" stop-color="#a6b2c7"/><stop offset="1" stop-color="#7595b6"/></linearGradient><linearGradient id="c" x1="3.42" y1="0.5" x2="4.42" y2="0.5" xlink:href="#b"/><linearGradient id="d" x1="8.475" y1="0.5" x2="9.475" y2="0.5" gradientUnits="objectBoundingBox"><stop offset="0" stop-color="#cbaf85"/><stop offset="1" stop-color="#ba7c44"/></linearGradient><linearGradient id="e" x1="6.838" y1="-8.679" x2="6.893" y2="-10.453" xlink:href="#d"/><linearGradient id="f" x1="-46.353" y1="-16.505" x2="-46.916" y2="-18.212" gradientUnits="objectBoundingBox"><stop offset="0" stop-color="#3b3138"/><stop offset="1" stop-color="#241f21"/></linearGradient><linearGradient id="g" x1="15.417" y1="-22.743" x2="15.382" y2="-19.564" xlink:href="#d"/><linearGradient id="h" y1="0.5" x2="1" y2="0.5" gradientUnits="objectBoundingBox"><stop offset="0" stop-color="#96888e"/><stop offset="1" stop-color="#706369"/></linearGradient><linearGradient id="i" x1="2.261" y1="-0.629" x2="-0.103" y2="0.967" xlink:href="#h"/><linearGradient id="j" x1="-0.334" y1="-3.552" x2="1.161" y2="3.209" xlink:href="#h"/><linearGradient id="k" x1="0.627" y1="-0.059" x2="0.482" y2="0.815" xlink:href="#h"/><linearGradient id="l" y1="0.5" x2="1" y2="0.5" gradientUnits="objectBoundingBox"><stop offset="0" stop-color="#d3c5cb"/><stop offset="1" stop-color="#ada0a6"/></linearGradient><linearGradient id="m" x1="0.437" y1="0.168" x2="0.452" y2="0.252" xlink:href="#l"/><linearGradient id="n" x1="0.511" y1="0.562" x2="0.386" y2="-0.441" xlink:href="#l"/><linearGradient id="o" x1="0.425" y1="-0.898" x2="0.488" y2="0.266" xlink:href="#l"/><linearGradient id="p" x1="0.534" y1="0.563" x2="0.126" y2="-0.5" xlink:href="#l"/><linearGradient id="q" x1="0" y1="0.5" x2="1" y2="0.5" xlink:href="#f"/><linearGradient id="r" x1="0.638" y1="0.261" x2="2.748" y2="-4.013" xlink:href="#d"/><linearGradient id="s" x1="0.25" y1="-0.024" x2="0.475" y2="0.43" xlink:href="#f"/><linearGradient id="u" x1="0.798" y1="-0.061" x2="2.908" y2="-4.335" xlink:href="#d"/><linearGradient id="w" x1="0.37" y1="-0.311" x2="0.874" y2="3.669" xlink:href="#d"/><linearGradient id="x" y1="0.5" x2="1" y2="0.5" gradientUnits="objectBoundingBox"><stop offset="0" stop-color="#95afc7"/><stop offset="1" stop-color="#7595b6"/></linearGradient><linearGradient id="z" x1="0" y1="0.5" x2="1" y2="0.5" xlink:href="#b"/><linearGradient id="ab" x1="0.508" y1="2.028" x2="0.502" y2="0.732" xlink:href="#h"/><linearGradient id="ad" x1="0" y1="0.5" x2="1" y2="0.5" xlink:href="#d"/><linearGradient id="ae" x1="-60.349" y1="-33.768" x2="-60.941" y2="-35.308" xlink:href="#f"/><linearGradient id="af" x1="12.087" y1="-51.241" x2="12.05" y2="-48.093" xlink:href="#d"/><linearGradient id="ag" x1="0.455" y1="0.36" x2="1.197" y2="4.92" xlink:href="#d"/><linearGradient id="ai" x1="-0.114" y1="-0.199" x2="0.598" y2="0.541" xlink:href="#l"/><linearGradient id="aj" x1="-0.226" y1="2.207" x2="7.393" y2="-15.701" xlink:href="#l"/><linearGradient id="ak" x1="0.612" y1="0.237" x2="8.281" y2="-17.79" xlink:href="#l"/><linearGradient id="al" x1="0.116" y1="1.402" x2="7.786" y2="-16.624" xlink:href="#l"/><linearGradient id="am" x1="0.271" y1="1.038" x2="7.941" y2="-16.987" xlink:href="#l"/><linearGradient id="an" x1="0.503" y1="0.494" x2="8.172" y2="-17.533" xlink:href="#l"/><linearGradient id="ao" x1="-0.115" y1="1.946" x2="7.554" y2="-16.08" xlink:href="#l"/><linearGradient id="ap" x1="0.708" y1="0.011" x2="8.378" y2="-18.014" xlink:href="#l"/><linearGradient id="aq" x1="-0.321" y1="2.429" x2="7.349" y2="-15.597" xlink:href="#l"/><linearGradient id="ar" x1="-4.588" y1="-0.628" x2="9.479" y2="2.49" xlink:href="#l"/></defs><g transform="translate(-1337.484 -180.446)"><path class="a" d="M1719.006,522.235c-56.946,104.4-262.309,102.075-342.3,10.1-43.255-49.738-39.373-113.657-38.963-119.146,7.2-96.19,100.6-142.984,105.7-145.434,77.166-37.1,173.149-15.076,231.515,46.3C1726.722,368.492,1753.574,458.859,1719.006,522.235Z" transform="translate(0 -35.991)"/><g transform="translate(1345.194 238.265)"><g transform="translate(66.546)"><path class="b" d="M1575.976,365.964a138.954,138.954,0,0,1,29.763-4.97c17.883-1.011,26.825-1.516,33.161,2.742,14.635,9.836,3.3,32.538,9.3,88.813,2.546,23.918,3.694,22.371-2.044,30.884-11.658,17.3-44.4,18.713-59.4,3.717-7.928-7.926-8.951-8.373-9.141-17.416C1576.853,434.038,1576.285,400.331,1575.976,365.964Z" transform="translate(-1535.801 -331.82)"/><path class="c" d="M1697.193,434.633c-3.223,1.281.243,13.776,2.755,36.068,3.03,26.888-.348,23.47,2.755,40.074l.006.032c-3.106-1.471-6.546-.595-8.122,2.641a5.912,5.912,0,0,0-1.655.88,4.927,4.927,0,0,0-3.5.342,5.213,5.213,0,0,0-6.759,2.59,5.866,5.866,0,0,0-4.109,2.243,5,5,0,0,0-4.494,2.364,5.07,5.07,0,0,0-4.137-.332c-1.907-1.274-4.5-1.468-6.165.575-.161.2-.311.395-.458.594a4.517,4.517,0,0,0-.514-.2c-.022-23.547-.724-42.88-1.416-56.809-1.271-25.561-2.379-37.872-.006-56.478a193.042,193.042,0,0,1,12.612-48.023,52.96,52.96,0,0,1,22.81,5.779c3.76,1.933,15.2,8.171,21.679,20.8,8.046,15.689-.717,24.982,8.277,38.6,6.325,9.575,14.471,10.75,13.525,14.277-1.448,5.4-22.123,8.574-35.065-.251C1700.627,437.27,1698.924,433.945,1697.193,434.633Z" transform="translate(-1579.497 -332.286)"/><path class="d" d="M1695.586,440.133c.9,14.429-8.035,16.8-8.162,33.573-.091,12.049,4.44,21.645,6.878,26.807a61.6,61.6,0,0,0,3.14,5.852c-3.665.295-7.282.946-10.328,1.393a28.952,28.952,0,0,1-8.625.334c-4.6-.36-9.334-.961-13.924-.275a11.769,11.769,0,0,0-1.869.435c-.22-17.169-.773-31.552-1.32-42.561-1.271-25.561-2.379-37.872-.006-56.478a193.042,193.042,0,0,1,12.612-48.023,53.314,53.314,0,0,1,21.208,5.029,23.918,23.918,0,0,1,4.251,12.25c.54,13.82-13.314,18.622-13.7,33.83C1685.417,424.8,1694.68,425.6,1695.586,440.133Z" transform="translate(-1579.497 -332.286)"/><path class="c" d="M1571.176,413.361c2.189,7.948,1.987,14.275,1.753,20.113-1.287,32.161-1.941,48.336-2.5,52.915-2.735,22.236-4.668,20.851-4,29.881.355,4.835,1.184,8.972-1.583,12.014-3.3,3.628-8.046,1.665-19.726,3.1-10.738,1.324-11.022,3.513-22.626,4.846-4.715.541-17.591,2.021-18.936-1.48-.72-1.872,1.944-4.946,4.509-6.465,4.179-2.475,7.741-.609,9.151-2.583,1.617-2.263-2.749-5.154-2.89-10.585-.141-5.414,4.075-7.174,6.692-13.822,2.439-6.194,1.456-11.466,1.08-15.2-1.678-16.66,5.992-29.835,7.506-51.906,2.358-34.371-13.015-49.468-2.58-60.482,5.65-5.964,14.95-6.594,20.764-6.459,6.041,12.03,11.244,21.5,14.928,28C1566.687,402.266,1569.3,406.538,1571.176,413.361Z" transform="translate(-1498.064 -335.431)"/><g transform="translate(80.485 28.903)"><path class="c" d="M1676.034,403.074c-.857-2.954-3.567-5.784-2.5-9.268a7.87,7.87,0,0,1,3.538-4.176,16.8,16.8,0,0,0,13.119-17.865,16.272,16.272,0,0,0-3.726-8.776,53.776,53.776,0,0,0-12.471-1.8,193.042,193.042,0,0,0-12.612,48.023A169.383,169.383,0,0,0,1660,433.406a31.263,31.263,0,0,1,5.624-10.677C1669.266,418.3,1678.123,410.266,1676.034,403.074Z" transform="translate(-1659.988 -361.189)"/></g><g class="e" transform="translate(25.527 31.805)"><path class="f" d="M1593.033,413.361c-1.879-6.823-4.489-11.095-8.466-18.114-3.685-6.5-8.887-15.966-14.928-28-1.41-.033-3.027-.018-4.745.1-9.2,12.142-9.779,18.929-7.643,22.958,2.082,3.925,6.435,4.688,7,8.927.889,6.627-9.2,8.892-11.672,17.853-2.16,7.823,2.894,15.636,7.65,22.99,8.092,12.508,15.5,14.054,15.228,20.751-.283,6.968-8.377,7.092-11.673,15.622-5.166,13.37,10.887,22.983,6.069,34.814-3.733,9.169-15.009,7.406-21.944,19.192a26.706,26.706,0,0,0-2.465,5.632c10.5-1.342,11.145-3.426,21.521-4.706,11.68-1.44,16.427.523,19.726-3.1,2.767-3.042,1.938-7.18,1.583-12.014-.664-9.03,1.269-7.645,4-29.881.563-4.579,1.218-20.754,2.5-52.915C1595.02,427.636,1595.222,421.309,1593.033,413.361Z" transform="translate(-1545.448 -367.236)"/></g><path class="c" d="M1579.336,396.076c4.743,4.216,8.175,5.639,8.767,9.66.653,4.43-3.038,5.912-2.41,10.224.785,5.395,6.9,5.407,10.049,12.3,2.062,4.514.263,6.306,1.5,12.148.755,3.561,2.625,8.523,7.7,14.032.208-5.353.436-11.306.689-17.915.234-6.107.436-12.725-1.753-21.039-1.879-7.138-4.489-11.606-8.466-18.949-3.684-6.8-8.887-16.7-14.928-29.286a37.625,37.625,0,0,0-12.375,1.549,13.566,13.566,0,0,0-1.8,6.109C1565.972,384.2,1576.169,393.261,1579.336,396.076Z" transform="translate(-1530.77 -335.431)"/><path class="c" d="M1525.194,382.622c-3.132.186,7.474-12.919,2.448-10.955-20.27,7.921-39.015,33.653-34.8,57.287.7,3.938,3.57,20.1,17.286,27.952,12.575,7.2,29.555,5.345,43.16-4.847l5.578-4.949,5.488-5.931a44.044,44.044,0,0,0-14.622-8.056c-8.915-2.876-15.258,1.962-19.829-1.664-3.57-2.831-3.756-8.289-3.62-13.022C1526.789,400.927,1520.5,395.767,1525.194,382.622Z" transform="translate(-1492.245 -337.632)"/><path class="g" d="M1631.252,520.6c-.489-.109,2.381-5.828,4.634-5.168s13.274,7.047,14.275,9.677l1,2.63s-4.807.376-7.788-.626S1635.227,521.489,1631.252,520.6Z" transform="translate(-1564.527 -412.495)"/><g transform="translate(53.875)"><path class="h" d="M1621.927,321.031a61.952,61.952,0,0,1-1.106,12.386c-.641,3.3-1.1,4.151-1.692,4.843-.888,1.041-2.232,1.914-9.83,3.8-4.134,1.025-4.666,1-4.757,1.407-.445,2,10.828,8.822,22.475,7.178,7.128-1.006,13.613-5.073,13.215-7.208s-7.521-1-9.643-4.884c-1.476-2.705.179-6.545,2.135-9.725C1630.828,325.277,1623.821,324.581,1621.927,321.031Z" transform="translate(-1604.528 -311.396)"/><g transform="translate(13.504)"><path class="i" d="M1658.044,315.531c.047-1.7-1.2-2.27-1-4.267.231-2.33,2.056-2.818,2.008-4.268-.085-2.58-5.98-4.555-9.791-5.272-4.232-.8-8.906-1.675-12.552,1.255-3.535,2.84-5.087,8.443-3.264,10.795,1,1.284,2.379.8,4.242,2.154,2.377,1.728,3.172,4.73,3.457,7.116a18.824,18.824,0,0,1,1.9-2.646c1.59-1.841,2.3-2.83,3.14-2.829,1.645,0,1.693,3.2,3.828,3.988C1652.835,322.594,1657.949,318.905,1658.044,315.531Z" transform="translate(-1632.673 -300.95)"/><path class="j" d="M1641.464,330.34a10.175,10.175,0,0,0,7.215,6.97c5.2,1.247,9.487-9.954,6.982-13.388a6.735,6.735,0,0,0-4.83-2.208c-1.135-.031-1.624.294-3.478.207-1.71-.079-2.1-.393-2.706-.139-.754.318-1.573,1.416-1.61,5.067-.667-1.286-1.718-2.025-2.666-1.891a1.821,1.821,0,0,0-.884.451C1638.372,326.5,1639.048,328.532,1641.464,330.34Z" transform="translate(-1635.946 -311.736)"/></g></g></g><g transform="translate(0 64.342)"><g transform="translate(0 0.348)"><path class="k" d="M1550.919,605.672V596.02l124.675-2.413-9.652,8.848-95.719,10.457Z" transform="translate(-1456.221 -517.877)"/><path class="l" d="M1678.812,575.166l-127.893,11.261,20.913,6.435,103.762-8.848Z" transform="translate(-1456.221 -508.285)"/><path class="m" d="M1550.919,948.382l59.65,25.25,143.852-18.666V942.1l-203.5-4.826Z" transform="translate(-1456.221 -696.647)"/><path class="n" d="M1550.919,834.368l61.935,23.326,33.783-45.848-13.674-65.957-34.587-6.435-2.413,68.37Z" transform="translate(-1456.221 -593.745)"/><path class="o" d="M1680,862.927l141.567-18.5-37.8-29.761V749.513l-83.653,1.609v71.588Z" transform="translate(-1523.369 -598.978)"/><path class="p" d="M1820.464,477.935l4.99,5.969a11.455,11.455,0,0,1-.354,15.1l-102.6,111.65-136.741,12.065L1543.241,676.9a19.93,19.93,0,0,1-19.079,7.334l-6.771-1.172,55.5-109.407Z" transform="translate(-1438.78 -457.706)"/><path class="q" d="M1935.412,460.144l-105.947,99.67-89.112-29,94.659-89.942a18.511,18.511,0,0,1,16.787-4.647l82.081,18.336A3.279,3.279,0,0,1,1935.412,460.144Z" transform="translate(-1554.762 -435.774)"/><path class="r" d="M1551.553,674.977l135.254-12.18-89.284-28.957-131.742,11.271Z" transform="translate(-1411.933 -538.806)"/><path class="s" d="M1438.135,772.2l56.232-84.6-87.138-30.3-51.675,74.974a9.326,9.326,0,0,0,3.533,14.289l67.487,28.989A9.326,9.326,0,0,0,1438.135,772.2Z" transform="translate(-1353.553 -551.015)"/></g><g transform="translate(16.613)"><path class="t" d="M1410.554,792.8a10.945,10.945,0,0,1-.732,5.583c-.932,2.366-20.4,7.062-21.193,6.957s-.96-2.131,3.124-5.269c4.511-3.465,9.884-7.672,14.12-8.7C1407.559,790.967,1408.343,792.048,1410.554,792.8Z" transform="translate(-1388.177 -620.36)"/><path class="u" d="M1435.554,773.165l-6.039,8.944s-4.3,1.87-4.888-.641c-.024-.1,4.756-10.734,4.756-10.734Z" transform="translate(-1407.138 -609.669)"/><path class="v" d="M1426.027,689.51l9.652,4.022c1.884-2.01,4.614-4.829,8.044-8.043,5.954-5.581,27.718-25.2,57.109-36.2,41.395-15.49,62.45-.611,82.849-20.913,4.941-4.918,13.225-15.266,11.26-17.7-1.521-1.882-8.419,2.252-12.065,3.218-27.348,7.239-56.563-6.967-94.109,5.631a92.439,92.439,0,0,0-23.327,12.065C1439.689,649.856,1429.8,676.533,1426.027,689.51Z" transform="translate(-1407.866 -526.16)"/><path class="t" d="M1452.464,821.3a10.941,10.941,0,0,1-.732,5.583c-.932,2.366-20.4,7.062-21.193,6.957s-.96-2.131,3.124-5.269c4.51-3.465,9.883-7.672,14.119-8.7C1449.469,819.466,1450.253,820.547,1452.464,821.3Z" transform="translate(-1409.978 -635.184)"/><path class="w" d="M1477.464,801.664l-6.039,8.943s-4.3,1.87-4.888-.641c-.023-.1,4.756-10.734,4.756-10.734Z" transform="translate(-1428.939 -624.494)"/><path class="t" d="M1467.937,711.654l9.652,4.022c1.85-1.923,4.609-4.74,8.044-8.044,10.42-10.024,29.488-28.368,47.457-37,9.245-4.442,9.663-2.211,71.588-6.435,31.053-2.118,42.167-3.444,45.848-11.261,3.545-7.528-.547-19.493-8.043-24.131-6.442-3.986-14.272-1.865-18.5-.8-43.023,10.792-53.916-2.7-93.306,13.674-8.657,3.6-15.262,6.347-23.326,12.066C1481.6,672,1471.709,698.677,1467.937,711.654Z" transform="translate(-1429.667 -534.63)"/><path class="x" d="M1608.782,584.231l-8.832-.736s-7.36-2.208-9.568-2.208-9.568,5.152-10.3,6.624,1.472,4.416,5.888,2.944,9.568-2.208,12.512-1.472,11.776-1.472,11.776-1.472Z" transform="translate(-1487.929 -511.121)"/><path class="y" d="M1628.872,528.417a217.483,217.483,0,0,0,56.305-16.891c25.7-11.831,38.545-17.747,45.044-24.131,3.753-3.686,9.733-10.314,15.283-8.848,4.549,1.2,7.969,7.618,8.044,12.869.3,21.1-53.213,37.231-57.914,38.609a164.32,164.32,0,0,1-61.935,5.631Z" transform="translate(-1513.384 -457.568)"/><path class="y" d="M1724.427,544.509s30.566-18.5,36.2-30.565,24.131-41.022,37.8-40.218,49.87,10.457,58.718,17.7,15.283,16.087,14.478,24.131-56.3,56.3-77.218,61.131-18.065,1.8-22.522-5.631C1764.645,558.988,1734.884,546.923,1724.427,544.509Z" transform="translate(-1563.091 -455.16)"/><path class="z" d="M1831.14,536.068c-11.9,7.036-12.246,22.541-26.763,26.93-9.352,2.828-11.485-2.92-25.019-1.271-15.838,1.929-19.1,10.553-31.8,11.546a32.543,32.543,0,0,1-15.621-2.848c-4.406,2.946-7.51,4.826-7.51,4.826,10.457,2.413,40.218,14.479,47.457,26.544,4.457,7.428,1.609,10.457,22.522,5.631s76.413-53.088,77.218-61.131a15.777,15.777,0,0,0-.7-6.218C1850.21,530.423,1838.35,531.806,1831.14,536.068Z" transform="translate(-1563.091 -485.901)"/><g transform="translate(164.956 89.752)"><path class="k" d="M1731.971,657.641v-9.652l124.675-2.413-9.652,8.848-95.719,10.457Z" transform="translate(-1731.971 -634.314)"/><path class="aa" d="M1859.864,627.135,1731.971,638.4l20.913,6.435,103.762-8.848Z" transform="translate(-1731.971 -624.722)"/><ellipse class="ab" cx="12.065" cy="11.261" rx="12.065" ry="11.261" transform="translate(112.61)"/><ellipse class="k" cx="8.446" cy="7.883" rx="8.446" ry="7.883" transform="translate(115.827 3.754)"/></g><path class="ac" d="M1941.034,477.9a5.494,5.494,0,0,1-3.217,3.218c-2.413.8-15.015-1.609-15.015-1.609l2.949,5.631s16.313.9,25.852,3.267c0,0-5.743-2.463-5.743-6.485s1.609-4.826,1.609-4.826Z" transform="translate(-1666.283 -456.922)"/><g transform="translate(270.804)"><path class="ad" d="M1954.066,441.473c1.175-1.084,2.356-.552,3.652-1.93,1.511-1.607.728-3.2,1.786-4.069,1.885-1.537,6.939,1.426,9.807,3.687,3.185,2.512,6.7,5.286,6.882,9.69.172,4.269-2.844,8.841-5.644,9-1.528.088-2.042-1.193-4.156-1.677-2.7-.618-5.323.677-7.193,1.952a17.752,17.752,0,0,0,.7-2.989c.323-2.269.583-3.388.064-3.981-1.02-1.166-3.323.781-5.2-.249C1952.276,449.546,1951.729,443.629,1954.066,441.473Z" transform="translate(-1952.576 -435.049)"/><path class="ae" d="M1963.532,467.759a9.587,9.587,0,0,1-9.417-.807c-4.106-2.921,1.193-12.9,5.183-13.249a6.349,6.349,0,0,1,4.558,2.062c.725.787.8,1.335,2.006,2.6,1.115,1.165,1.582,1.25,1.775,1.835.24.732-.031,1.994-2.6,4.281a2.735,2.735,0,0,1,2.994.722,1.723,1.723,0,0,1,.227.907C1968.179,467.573,1966.313,468.355,1963.532,467.759Z" transform="translate(-1952.605 -444.747)"/></g><path class="af" d="M1887.166,477.1s17.786,13.157,38.252,11.807l-22.165,17.954s-24.131-2.413-32.978-10.457Z" transform="translate(-1638.96 -456.922)"/><path class="ag" d="M1780.139,640.678s-8.044,1.609-10.457,0-10.73-3.5-13.81-.947-6.3,4.969-6.3,4.969,5.631.8,8.848,0,5.631,1.609,9.652,2.413,13.674-2.413,13.674-2.413Z" transform="translate(-1576.172 -540.872)"/><path class="y" d="M1803.218,575.514l3.218,7.239s30.565,0,44.24-2.413,34.588-9.652,48.262-21.718,20.209-23.966,5.681-39.734-31.769,18.353-35.442,22.842C1861.936,550.579,1846.653,562.644,1803.218,575.514Z" transform="translate(-1604.077 -476.512)"/></g></g></g><g transform="translate(1550.255 180.446)"><g transform="translate(0)"><path class="ah" d="M1958.268,260.647c-1.67,3.767-8.665,15.852-8.665,15.852s-46.307-10.091-75.845-23.186c-36.7-16.27-69.144-44.833-69.144-44.833s6.382-11.56,6.962-12.867c6.166-13.908,44-10.624,84.51,7.334S1964.433,246.739,1958.268,260.647Z" transform="translate(-1793.252 -183.855)"/><ellipse class="c" cx="27.546" cy="80.231" rx="27.546" ry="80.231" transform="translate(0 50.365) rotate(-66.09)"/><g transform="translate(21.625 23.314)"><path class="ai" d="M1971.319,263.712c-1.055,2.379-7.684,1.747-14.806-1.41s-12.042-7.646-10.987-10.025,7.684-1.748,14.806,1.41S1972.374,261.332,1971.319,263.712Z" transform="translate(-1888.104 -240.376)"/><path class="aj" d="M1940.315,333.676c-1.048,2.363-7.633,1.736-14.709-1.4s-11.962-7.6-10.915-9.959,7.633-1.736,14.709,1.4S1941.363,331.313,1940.315,333.676Z" transform="translate(-1872.065 -276.815)"/><path class="ak" d="M1890.685,237.14c4.262,3.889,3.061,6.6-2.683,6.051a36.5,36.5,0,0,1-18.119-8.033c-4.262-3.889-3.061-6.6,2.683-6.052A36.5,36.5,0,0,1,1890.685,237.14Z" transform="translate(-1847.502 -229.037)"/><path class="al" d="M2015.908,351.4c4.262,3.889,3.061,6.6-2.683,6.052a36.495,36.495,0,0,1-18.118-8.033c-4.263-3.889-3.062-6.6,2.682-6.052A36.5,36.5,0,0,1,2015.908,351.4Z" transform="translate(-1912.642 -288.474)"/><path class="am" d="M1840.855,242.922c7.075,3.137,11.962,7.6,10.914,9.959s-7.633,1.736-14.708-1.4-11.962-7.6-10.915-9.959S1833.779,239.785,1840.855,242.922Z" transform="translate(-1826.004 -234.786)"/><path class="an" d="M2048.728,335.081c7.076,3.136,11.962,7.6,10.915,9.959s-7.634,1.736-14.709-1.4-11.962-7.6-10.914-9.959S2041.652,331.944,2048.728,335.081Z" transform="translate(-1934.138 -282.726)"/><path class="ao" d="M1850.8,278.2a36.5,36.5,0,0,1,18.119,8.032c4.262,3.889,3.061,6.6-2.683,6.051a36.495,36.495,0,0,1-18.118-8.033C1843.855,280.365,1845.056,277.655,1850.8,278.2Z" transform="translate(-1836.18 -254.576)"/><path class="ap" d="M2019.555,294.273a36.5,36.5,0,0,1,18.118,8.033c4.263,3.889,3.062,6.6-2.683,6.052a36.5,36.5,0,0,1-18.119-8.033C2012.61,296.435,2013.811,293.726,2019.555,294.273Z" transform="translate(-1923.964 -262.935)"/></g><ellipse class="aq" cx="11.651" cy="34.883" rx="11.651" ry="34.883" transform="translate(47.899 54.213) rotate(-66.09)"/></g></g></g></svg>