<svg xmlns="http://www.w3.org/2000/svg" xmlns:xlink="http://www.w3.org/1999/xlink" width="317.109" height="81.685" viewBox="0 0 317.109 81.685">
  <defs>
    <radialGradient id="radial-gradient" cx="-0.174" cy="-0.875" r="2.775" gradientTransform="translate(0.033) scale(0.935 1)" gradientUnits="objectBoundingBox">
      <stop offset="0" stop-color="#ffd38c"/>
      <stop offset="1" stop-color="#80501f"/>
    </radialGradient>
    <radialGradient id="radial-gradient-2" cx="0.002" cy="-0.373" r="4.019" gradientTransform="translate(0.261) scale(0.478 1)" xlink:href="#radial-gradient"/>
    <radialGradient id="radial-gradient-3" cx="0.192" cy="0.063" r="1.022" gradientTransform="translate(-0.092) scale(1.184 1)" xlink:href="#radial-gradient"/>
    <radialGradient id="radial-gradient-4" cx="0.126" cy="-0.016" r="1.208" gradientTransform="translate(-0.106) scale(1.212 1)" xlink:href="#radial-gradient"/>
  </defs>
  <g id="Group_851" data-name="Group 851" transform="translate(280.869 -303.92)">
    <g id="Group_775" data-name="Group 775" transform="translate(-268.115 316.77)">
      <path id="Path_322" data-name="Path 322" d="M-252.844,323.814a41.966,41.966,0,0,0-16.369,3.228c.742,1.867,1.459,3.836,2.131,5.912a95.227,95.227,0,0,1,4.249,20.935l.359-10.279a9.918,9.918,0,0,1,9.35-9.9,9.918,9.918,0,0,1,9.35,9.9l.359,10.279a95.227,95.227,0,0,1,4.249-20.935c.671-2.077,1.388-4.046,2.132-5.915A41.562,41.562,0,0,0-252.844,323.814Z" transform="translate(274.869 -305.244)" fill="url(#radial-gradient)"/>
      <path id="Path_323" data-name="Path 323" d="M-250.763,329.513a42.638,42.638,0,0,1,16.22,3.307,95.414,95.414,0,0,1,5.236-10.753c-1.121.384-6.449.521-11.978-1.418-4.607-1.616-9.282-7.374-9.766-8.594-.483,1.219-5.158,6.978-9.765,8.594-5.529,1.94-10.857,1.8-11.978,1.418a95.188,95.188,0,0,1,5.237,10.756A43.366,43.366,0,0,1-250.763,329.513Z" transform="translate(272.794 -312.056)" fill="url(#radial-gradient-2)"/>
    </g>
    <g id="Group_776" data-name="Group 776" transform="translate(-280.869 303.92)">
      <path id="Path_324" data-name="Path 324" d="M-224.609,308.508a18.571,18.571,0,0,0,4.879,6.536,29.311,29.311,0,0,0,3.219,2.491c-.137,5.444-.641,17.735-2.481,25.381-3.86,16.078-12.116,31.4-27.384,37.765a40.176,40.176,0,0,1-17.958-15.233,69.449,69.449,0,0,1-9.418-22.535c-1.848-7.677-2.349-20.043-2.481-25.451a27.306,27.306,0,0,0,3.05-2.516,18.6,18.6,0,0,0,4.544-6.438Zm3.636-4.588h-51.342c0,6.035-7.925,10.892-8.541,10.892h-.013s.095,18.53,2.656,29.175c3.746,15.609,12.485,34.557,31.836,41.619,19.357-7.061,28.1-26.01,31.845-41.619,2.56-10.645,2.657-29.175,2.657-29.175h-.013c-.627,0-9.086-4.857-9.086-10.892Z" transform="translate(280.869 -303.92)" fill="url(#radial-gradient-3)"/>
    </g>
    <g id="Group_777" data-name="Group 777" transform="translate(-274.872 310.127)">
      <path id="Path_325" data-name="Path 325" d="M-228,308.423c1.358,3.7,5.672,7.46,7.354,8.387-.014,2.379-.188,16.055-2.176,24.084-3.759,15.188-11.62,28.726-25.89,35.435-14.074-5.732-22.451-22.031-25.605-35.429-1.906-8.082-2.148-21.805-2.175-24.116,1.756-1.1,6.169-5.708,6.953-8.361Zm.412-.573H-270c-.319,2.851-6.58,8.6-7.06,8.6h-.008s.079,15.611,2.2,24.579c3.094,13.152,11.386,30.045,26.18,35.923,16.511-7.643,23.393-23.658,26.43-35.923,2.214-8.944,2.194-24.579,2.194-24.579h-.01c-.5,0-6.166-4.239-7.507-8.6Z" transform="translate(277.072 -307.85)" fill="url(#radial-gradient-4)"/>
    </g>
    <g id="Group_780" data-name="Group 780" transform="translate(-195.55 318.852)">
      <g id="Group_778" data-name="Group 778">
        <path id="Path_326" data-name="Path 326" d="M-226.849,315.147v-.392h19.837v.828h-15.3v12.992h12.163v.828h-12.163v15.214h15.3v.829H-225.1V315.887Z" transform="translate(226.849 -312.574)" fill="#fff"/>
        <path id="Path_327" data-name="Path 327" d="M-208.8,321.06a8,8,0,0,1,3.62-.785,9.735,9.735,0,0,1,3.4.632,7.711,7.711,0,0,1,2.965,1.984l-.349.349a8.149,8.149,0,0,0-2.878-2.006,9.654,9.654,0,0,0-2.965-.523,5.243,5.243,0,0,0-3.1.85,4.41,4.41,0,0,0-1.81,2.159,3.264,3.264,0,0,0,.2,2.616,5.2,5.2,0,0,0,2.922,2.266q1.962.744,3.576,1.374a25.735,25.735,0,0,1,2.965,1.374,5.429,5.429,0,0,1,2.484,2.462,6.323,6.323,0,0,1,.61,3.051,6.566,6.566,0,0,1-.87,2.922,5.327,5.327,0,0,1-2.05,2.071,9.292,9.292,0,0,1-4.448,1.046,11.682,11.682,0,0,1-4.228-.805,9.6,9.6,0,0,1-3.576-2.377l.438-.349a14.789,14.789,0,0,0,2.636,1.962,8.391,8.391,0,0,0,4.078,1.047,6.5,6.5,0,0,0,3.617-.676,5.218,5.218,0,0,0,2.094-1.984,4.305,4.305,0,0,0,.545-2.484,3.755,3.755,0,0,0-.981-2.268,7.114,7.114,0,0,0-1.919-1.481,20.7,20.7,0,0,0-2.375-1.09q-1.244-.481-2.464-.916a23.029,23.029,0,0,1-2.224-.916,4.717,4.717,0,0,1-2.266-2.071,5.3,5.3,0,0,1-.633-2.747,5.767,5.767,0,0,1,.829-2.7A5.1,5.1,0,0,1-208.8,321.06Z" transform="translate(235.261 -309.376)" fill="#fff"/>
        <path id="Path_328" data-name="Path 328" d="M-202.31,324.667h3.1v-10.2l-1.744-.742v-.349h4.272v11.293h5.842v.654h-5.842v16.217a6.514,6.514,0,0,0,.3,2.42,3.442,3.442,0,0,0,.959,1.459,3.307,3.307,0,0,0,2.224.742,7.274,7.274,0,0,0,3.881-1.308l.347.436a10.549,10.549,0,0,1-2.636,1.2,8.3,8.3,0,0,1-2.157.327,5.046,5.046,0,0,1-4.1-1.613,6.571,6.571,0,0,1-1.352-4.361V325.321h-3.1Z" transform="translate(241.067 -313.374)" fill="#fff"/>
        <path id="Path_329" data-name="Path 329" d="M-183.5,320.109a10.487,10.487,0,0,1,3.4.567,9.27,9.27,0,0,1,2.942,1.636,7.8,7.8,0,0,1,2.05,2.658,8.346,8.346,0,0,1,.763,3.641h-16.175a10.642,10.642,0,0,0-.262,2.747,12.766,12.766,0,0,0,.763,4.6,10.091,10.091,0,0,0,2.006,3.314,8.274,8.274,0,0,0,2.833,2.006,8.218,8.218,0,0,0,3.249.676,8.393,8.393,0,0,0,3.509-.785,8.706,8.706,0,0,0,3.072-2.4l.48.392a9.453,9.453,0,0,1-3.683,2.791,11.241,11.241,0,0,1-4.425.914,10.931,10.931,0,0,1-3.836-.7,9.55,9.55,0,0,1-3.356-2.137,10.829,10.829,0,0,1-2.4-3.6,13.348,13.348,0,0,1-.959-5.037,13.825,13.825,0,0,1,.676-4.358,10.654,10.654,0,0,1,1.962-3.576,9.566,9.566,0,0,1,3.16-2.442A9.527,9.527,0,0,1-183.5,320.109Zm-6.888,7.848h13.3q1.568,0,1.7-.785a3.379,3.379,0,0,0-.392-1.917,7.182,7.182,0,0,0-3.009-3.314,7.969,7.969,0,0,0-3.792-1,6.9,6.9,0,0,0-2.813.567,7.572,7.572,0,0,0-2.266,1.526,9.336,9.336,0,0,0-1.679,2.246A11.413,11.413,0,0,0-190.392,327.957Z" transform="translate(246.153 -309.472)" fill="#fff"/>
        <path id="Path_330" data-name="Path 330" d="M-180.089,324.667h3.094v-10.2l-1.744-.742v-.349h4.274v11.293h5.841v.654h-5.841v16.217a6.484,6.484,0,0,0,.3,2.42,3.459,3.459,0,0,0,.96,1.459,3.3,3.3,0,0,0,2.224.742,7.274,7.274,0,0,0,3.879-1.308l.349.436a10.557,10.557,0,0,1-2.638,1.2,8.3,8.3,0,0,1-2.157.327,5.049,5.049,0,0,1-4.1-1.613,6.571,6.571,0,0,1-1.352-4.361V325.321h-3.094Z" transform="translate(253.942 -313.374)" fill="#fff"/>
        <path id="Path_331" data-name="Path 331" d="M-170.152,322.747h4.272v21.579h-2.486v-20.49l-1.786-.7Zm1.35-4.361a1.654,1.654,0,0,1,.48-1.221,1.652,1.652,0,0,1,1.221-.478,1.677,1.677,0,0,1,1.2.478,1.623,1.623,0,0,1,.5,1.221,1.616,1.616,0,0,1-.5,1.221,1.673,1.673,0,0,1-1.2.48,1.647,1.647,0,0,1-1.221-.48A1.647,1.647,0,0,1-168.8,318.386Z" transform="translate(259.699 -311.454)" fill="#fff"/>
        <path id="Path_332" data-name="Path 332" d="M-165.322,313.723v-.349h4.272v25.242l12.817-13.949h1l-9.329,10.157,10.157,11.422h-3.312l-8.633-9.461-2.7,2.965v6.54h-2.529V314.465Z" transform="translate(262.498 -313.374)" fill="#fff"/>
        <path id="Path_333" data-name="Path 333" d="M-150.167,332.972a13.009,13.009,0,0,1,3.6-1.526,39.044,39.044,0,0,0,3.727-1.178,9.245,9.245,0,0,0,2.92-1.7,3.926,3.926,0,0,0,1.177-3.1v-.044a5,5,0,0,0-1.744-3.509,5.207,5.207,0,0,0-3.269-1.112,6.794,6.794,0,0,0-2.115.349,6.69,6.69,0,0,0-1.984,1.047,8.166,8.166,0,0,0-1.635,1.677,6.794,6.794,0,0,0-1.068,2.289l-.7-.131a7.728,7.728,0,0,1,1.221-2.658,7.809,7.809,0,0,1,1.875-1.854,7.737,7.737,0,0,1,2.289-1.068,9.11,9.11,0,0,1,2.464-.349,8.811,8.811,0,0,1,2.615.393,7.024,7.024,0,0,1,2.266,1.177,6.33,6.33,0,0,1,1.636,1.919,5.552,5.552,0,0,1,.674,2.571l.044,16.175h-.654l-1.831-3.532a7.652,7.652,0,0,1-3.314,3.051,9.99,9.99,0,0,1-4.448,1.047,8.994,8.994,0,0,1-2.18-.261,5.527,5.527,0,0,1-2.92-1.7,5.109,5.109,0,0,1-1.243-2.682,5.415,5.415,0,0,1,.436-2.92A5.135,5.135,0,0,1-150.167,332.972Zm2.66,8.413a5.007,5.007,0,0,0,2.268.479,7,7,0,0,0,2.309-.392,7.248,7.248,0,0,0,2.05-1.09,6.885,6.885,0,0,0,1.526-1.59,3.906,3.906,0,0,0,.7-1.854v-9.2a4.638,4.638,0,0,1-1.963,2.18,15.871,15.871,0,0,1-2.811,1.243q-1.5.5-3.009,1.068a6.569,6.569,0,0,0-2.549,1.7,4.079,4.079,0,0,0-.938,1.875,5.507,5.507,0,0,0-.043,2.18,5.04,5.04,0,0,0,.828,2A4.114,4.114,0,0,0-147.507,341.385Z" transform="translate(269.749 -309.472)" fill="#fff"/>
        <path id="Path_334" data-name="Path 334" d="M-133.358,315.147v-.392h9.112a17.423,17.423,0,0,1,7.477,1.417,13.115,13.115,0,0,1,4.751,3.639,13.637,13.637,0,0,1,2.508,4.97,20.59,20.59,0,0,1,.741,5.364,20.353,20.353,0,0,1-.741,5.34,13.5,13.5,0,0,1-2.529,4.948,13.179,13.179,0,0,1-4.752,3.618,17.5,17.5,0,0,1-7.455,1.395h-7.324V315.887Zm4.49.436v29.078h4.621a12.8,12.8,0,0,0,6.234-1.328,10.429,10.429,0,0,0,3.77-3.445,13.1,13.1,0,0,0,1.875-4.708,26.689,26.689,0,0,0,.5-5.079,25.532,25.532,0,0,0-.523-5.1,13,13,0,0,0-1.919-4.666,10.687,10.687,0,0,0-3.792-3.421,12.583,12.583,0,0,0-6.147-1.33Z" transform="translate(281.018 -312.574)" fill="#fff"/>
        <path id="Path_335" data-name="Path 335" d="M-106.134,320.109a10.5,10.5,0,0,1,3.4.567,9.27,9.27,0,0,1,2.942,1.636,7.773,7.773,0,0,1,2.048,2.658,8.325,8.325,0,0,1,.764,3.641h-16.176a10.712,10.712,0,0,0-.261,2.747,12.765,12.765,0,0,0,.763,4.6,10.064,10.064,0,0,0,2.006,3.314,8.275,8.275,0,0,0,2.833,2.006,8.217,8.217,0,0,0,3.247.676,8.387,8.387,0,0,0,3.509-.785,8.711,8.711,0,0,0,3.074-2.4l.48.392a9.453,9.453,0,0,1-3.683,2.791,11.241,11.241,0,0,1-4.425.914,10.931,10.931,0,0,1-3.836-.7,9.57,9.57,0,0,1-3.358-2.137,10.85,10.85,0,0,1-2.4-3.6,13.349,13.349,0,0,1-.959-5.037,13.826,13.826,0,0,1,.676-4.358,10.653,10.653,0,0,1,1.962-3.576,9.55,9.55,0,0,1,3.16-2.442A9.522,9.522,0,0,1-106.134,320.109Zm-6.888,7.848h13.3q1.571,0,1.7-.785a3.392,3.392,0,0,0-.392-1.917,7.182,7.182,0,0,0-3.009-3.314,7.974,7.974,0,0,0-3.792-1,6.9,6.9,0,0,0-2.813.567,7.552,7.552,0,0,0-2.266,1.526,9.335,9.335,0,0,0-1.679,2.246A11.277,11.277,0,0,0-113.022,327.957Z" transform="translate(290.981 -309.472)" fill="#fff"/>
        <path id="Path_336" data-name="Path 336" d="M-102.692,320.78l4.23-.044-.043,2.878a7.243,7.243,0,0,1,3.138-2.682,9.783,9.783,0,0,1,4.01-.85,9.593,9.593,0,0,1,2.878.436,7.786,7.786,0,0,1,2.484,1.286,6.438,6.438,0,0,1,1.745,2.093,6.144,6.144,0,0,1,.652,2.9v15.563h-2.527V326.8a7.127,7.127,0,0,0-.415-2.813,4.994,4.994,0,0,0-1.241-1.875,5.083,5.083,0,0,0-1.81-1.068,6.523,6.523,0,0,0-2.113-.349,8.376,8.376,0,0,0-2.442.371,7.29,7.29,0,0,0-2.181,1.068,6.031,6.031,0,0,0-1.546,1.614,3.7,3.7,0,0,0-.589,2.048v16.566h-2.484V321.87l-1.745-.7Z" transform="translate(298.786 -309.487)" fill="#fff"/>
        <path id="Path_337" data-name="Path 337" d="M-88.725,324.667h3.094v-10.2l-1.742-.742v-.349H-83.1v11.293h5.842v.654H-83.1v16.217a6.449,6.449,0,0,0,.3,2.42,3.442,3.442,0,0,0,.959,1.459,3.3,3.3,0,0,0,2.224.742,7.279,7.279,0,0,0,3.881-1.308l.347.436a10.557,10.557,0,0,1-2.638,1.2,8.284,8.284,0,0,1-2.157.327,5.049,5.049,0,0,1-4.1-1.613,6.58,6.58,0,0,1-1.352-4.361V325.321h-3.094Z" transform="translate(306.878 -313.374)" fill="#fff"/>
      </g>
      <g id="Group_779" data-name="Group 779" transform="translate(0 36.884)">
        <path id="Path_338" data-name="Path 338" d="M-226.446,345.874a4.7,4.7,0,0,0,2.477.7c1.316,0,2-.573,2-1.455,0-2.323-4.768-.883-4.768-3.917,0-1.316,1.1-2.2,2.724-2.2a6.154,6.154,0,0,1,2.554.589l-.34.665a5.315,5.315,0,0,0-2.214-.54c-1.145,0-1.873.6-1.873,1.455,0,2.32,4.768.82,4.768,3.915,0,1.346-1.022,2.2-2.849,2.2a5.666,5.666,0,0,1-2.879-.758Z" transform="translate(226.849 -335.41)" fill="#fff"/>
        <path id="Path_339" data-name="Path 339" d="M-219.144,340.723H-220.6v-.7h1.455V337.55h.851v2.477h2.322v.7h-2.322v5.2c0,.945.325,1.486,1.238,1.486a2.056,2.056,0,0,0,1.145-.373l.355.589a2.937,2.937,0,0,1-1.578.494c-1.425,0-2.012-.772-2.012-2.2Z" transform="translate(230.47 -336.25)" fill="#fff"/>
        <path id="Path_340" data-name="Path 340" d="M-211.026,339c2.137,0,3.7,1.6,3.7,4.04,0,2.6-1.5,4.241-3.7,4.241-2.229,0-3.715-1.639-3.715-4.241A3.712,3.712,0,0,1-211.026,339Zm0,7.584c1.7,0,2.818-1.391,2.818-3.544,0-2.012-1.177-3.326-2.818-3.326-1.657,0-2.848,1.314-2.848,3.326C-213.874,345.193-212.76,346.584-211.026,346.584Z" transform="translate(233.864 -335.41)" fill="#fff"/>
        <path id="Path_341" data-name="Path 341" d="M-206.708,339.186h.772l.077,1.1A3.937,3.937,0,0,1-203.086,339a2.075,2.075,0,0,1,2.165,1.363A4.059,4.059,0,0,1-198.01,339c1.687,0,2.368,1.069,2.368,2.631V347.1h-.865v-5.465c0-1.145-.434-1.917-1.657-1.917a3.434,3.434,0,0,0-2.6,1.314,4.569,4.569,0,0,1,.046.651V347.1h-.867v-5.465c0-1.145-.419-1.917-1.655-1.917a3.427,3.427,0,0,0-2.617,1.346V347.1h-.85Z" transform="translate(238.519 -335.41)" fill="#fff"/>
        <path id="Path_342" data-name="Path 342" d="M-191.557,342.7v-1.409c0-.881-.528-1.564-1.766-1.564a5.813,5.813,0,0,0-2.491.712l-.357-.7a6.7,6.7,0,0,1,2.863-.744c1.842,0,2.617.992,2.617,2.307v4.241c0,.6.308.913.834.913v.651a1.434,1.434,0,0,1-1.609-1.068,3.543,3.543,0,0,1-2.709,1.237,1.993,1.993,0,0,1-2.259-1.933C-196.433,343.3-193.849,342.792-191.557,342.7Zm-2.462,3.9a3.025,3.025,0,0,0,2.462-1.207v-2.105c-1.766.077-4.024.433-4.024,2.012C-195.582,346.09-194.963,346.6-194.02,346.6Z" transform="translate(244.472 -335.41)" fill="#fff"/>
        <path id="Path_343" data-name="Path 343" d="M-188.259,340.723h-1.455v-.7h1.455V337.55h.851v2.477h2.323v.7h-2.323v5.2c0,.945.327,1.486,1.24,1.486a2.06,2.06,0,0,0,1.145-.373l.355.589a2.938,2.938,0,0,1-1.579.494c-1.423,0-2.012-.772-2.012-2.2Z" transform="translate(248.365 -336.25)" fill="#fff"/>
        <path id="Path_344" data-name="Path 344" d="M-180.141,339c2.137,0,3.7,1.6,3.7,4.04,0,2.6-1.5,4.241-3.7,4.241-2.229,0-3.715-1.639-3.715-4.241A3.712,3.712,0,0,1-180.141,339Zm0,7.584c1.7,0,2.818-1.391,2.818-3.544,0-2.012-1.177-3.326-2.818-3.326-1.657,0-2.848,1.314-2.848,3.326C-182.989,345.193-181.874,346.584-180.141,346.584Z" transform="translate(251.759 -335.41)" fill="#fff"/>
        <path id="Path_345" data-name="Path 345" d="M-175.784,336.727h.851v11.686h-.851Z" transform="translate(256.436 -336.727)" fill="#fff"/>
        <path id="Path_346" data-name="Path 346" d="M-168.141,339c2.135,0,3.7,1.6,3.7,4.04,0,2.6-1.5,4.241-3.7,4.241-2.229,0-3.715-1.639-3.715-4.241A3.711,3.711,0,0,1-168.141,339Zm0,7.584c1.7,0,2.816-1.391,2.816-3.544,0-2.012-1.175-3.326-2.816-3.326-1.657,0-2.848,1.314-2.848,3.326C-170.989,345.193-169.875,346.584-168.141,346.584Z" transform="translate(258.712 -335.41)" fill="#fff"/>
        <path id="Path_347" data-name="Path 347" d="M-163.834,347.009a4.7,4.7,0,0,0,2.477.7c1.316,0,2-.573,2-1.455,0-2.323-4.768-.883-4.768-3.917,0-1.316,1.1-2.2,2.725-2.2a6.154,6.154,0,0,1,2.554.589l-.34.665a5.316,5.316,0,0,0-2.214-.54c-1.145,0-1.873.6-1.873,1.455,0,2.32,4.768.82,4.768,3.915,0,1.346-1.022,2.2-2.849,2.2a5.655,5.655,0,0,1-2.878-.758Zm.063-9.968h.633l1.78,1.857h.032l1.764-1.857h.651l-1.951,2.429h-.96Z" transform="translate(263.128 -336.545)" fill="#fff"/>
        <path id="Path_348" data-name="Path 348" d="M-157.369,336.727h.851v8.142l3.933-4.365h1l-2.382,2.585,2.816,5.324h-.975l-2.4-4.705-2,2.181v2.524h-.851Z" transform="translate(267.106 -336.727)" fill="#fff"/>
        <path id="Path_349" data-name="Path 349" d="M-145.93,342.7v-1.409c0-.881-.526-1.564-1.764-1.564a5.814,5.814,0,0,0-2.492.712l-.355-.7a6.69,6.69,0,0,1,2.863-.744c1.842,0,2.615.992,2.615,2.307v4.241c0,.6.31.913.835.913v.651a1.433,1.433,0,0,1-1.609-1.068,3.543,3.543,0,0,1-2.709,1.237,1.994,1.994,0,0,1-2.26-1.933C-150.806,343.3-148.221,342.792-145.93,342.7Zm-2.461,3.9a3.021,3.021,0,0,0,2.461-1.207v-2.105c-1.764.077-4.024.433-4.024,2.012C-149.955,346.09-149.336,346.6-148.391,346.6Z" transform="translate(270.909 -335.41)" fill="#fff"/>
        <path id="Path_350" data-name="Path 350" d="M-135.581,339c2.135,0,3.7,1.6,3.7,4.04,0,2.6-1.5,4.241-3.7,4.241-2.229,0-3.715-1.639-3.715-4.241A3.711,3.711,0,0,1-135.581,339Zm0,7.584c1.7,0,2.816-1.391,2.816-3.544,0-2.012-1.175-3.326-2.816-3.326-1.657,0-2.848,1.314-2.848,3.326C-138.429,345.193-137.315,346.584-135.581,346.584Z" transform="translate(277.577 -335.41)" fill="#fff"/>
        <path id="Path_351" data-name="Path 351" d="M-131.264,339.186h.76l.092,1.377A2.812,2.812,0,0,1-127.92,339a3.346,3.346,0,0,1,.959.125l-.169.821a2.964,2.964,0,0,0-.883-.141,2.787,2.787,0,0,0-2.4,1.657V347.1h-.851Z" transform="translate(282.231 -335.41)" fill="#fff"/>
        <path id="Path_352" data-name="Path 352" d="M-125.984,344.341c0-2.507,1.286-4.024,3.25-4.024a3.618,3.618,0,0,1,2.615,1.286v-4.876h.851v11.686h-.711l-.109-1.131a3.581,3.581,0,0,1-2.661,1.316C-124.792,348.6-125.984,346.974-125.984,344.341Zm5.866,2.214v-4.195a3.327,3.327,0,0,0-2.461-1.33c-1.579,0-2.554,1.268-2.554,3.31,0,2.153.9,3.546,2.538,3.546A3.291,3.291,0,0,0-120.118,346.556Z" transform="translate(285.29 -336.727)" fill="#fff"/>
        <path id="Path_353" data-name="Path 353" d="M-118.059,336.884h.851v1.253h-.851Zm0,3.56h.851v7.878h-.851Z" transform="translate(289.882 -336.636)" fill="#fff"/>
        <path id="Path_354" data-name="Path 354" d="M-113.876,339.186h.772l.077,1.177a3.972,3.972,0,0,1,2.9-1.363c1.8,0,2.461,1.069,2.461,2.647V347.1h-.867v-5.465c0-1.145-.449-1.917-1.748-1.917a3.478,3.478,0,0,0-2.74,1.439V347.1h-.85Z" transform="translate(292.306 -335.41)" fill="#fff"/>
        <path id="Path_355" data-name="Path 355" d="M-101.812,342.7v-1.409c0-.881-.526-1.564-1.764-1.564a5.82,5.82,0,0,0-2.492.712l-.355-.7A6.69,6.69,0,0,1-103.56,339c1.842,0,2.615.992,2.615,2.307v4.241c0,.6.31.913.835.913v.651a1.434,1.434,0,0,1-1.609-1.068,3.543,3.543,0,0,1-2.709,1.237,1.993,1.993,0,0,1-2.259-1.933C-106.686,343.3-104.1,342.792-101.812,342.7Zm-2.461,3.9a3.022,3.022,0,0,0,2.461-1.207v-2.105c-1.764.077-4.024.433-4.024,2.012C-105.836,346.09-105.217,346.6-104.273,346.6Z" transform="translate(296.472 -335.41)" fill="#fff"/>
        <path id="Path_356" data-name="Path 356" d="M-96.026,339a4.027,4.027,0,0,1,2.445.775l-.464.619a3.232,3.232,0,0,0-1.965-.651c-1.625,0-2.788,1.268-2.788,3.3,0,2.167,1.1,3.514,2.788,3.514a3.044,3.044,0,0,0,2.1-.79l.51.558a3.773,3.773,0,0,1-2.63.959c-2.167,0-3.637-1.609-3.637-4.241C-99.663,340.564-98.147,339-96.026,339Z" transform="translate(300.541 -335.41)" fill="#fff"/>
        <path id="Path_357" data-name="Path 357" d="M-92.424,336.884h.851v1.253h-.851Zm0,3.56h.851v7.878h-.851Z" transform="translate(304.735 -336.636)" fill="#fff"/>
        <path id="Path_358" data-name="Path 358" d="M-87.329,340.444h.851v8.374c0,2-.913,2.754-2.229,2.754a3.477,3.477,0,0,1-.79-.109l.169-.7a2.05,2.05,0,0,0,.542.079c.851,0,1.456-.543,1.456-2Zm0-3.56h.851v1.253h-.851Z" transform="translate(306.432 -336.636)" fill="#fff"/>
        <path id="Path_359" data-name="Path 359" d="M-79.379,342.7v-1.409c0-.881-.528-1.564-1.766-1.564a5.813,5.813,0,0,0-2.491.712l-.357-.7A6.69,6.69,0,0,1-81.129,339c1.842,0,2.615.992,2.615,2.307v4.241c0,.6.31.913.836.913v.651a1.434,1.434,0,0,1-1.609-1.068A3.543,3.543,0,0,1-82,347.281a1.993,1.993,0,0,1-2.259-1.933C-84.255,343.3-81.671,342.792-79.379,342.7Zm-2.462,3.9a3.025,3.025,0,0,0,2.462-1.207v-2.105c-1.766.077-4.024.433-4.024,2.012C-83.4,346.09-82.786,346.6-81.842,346.6Z" transform="translate(309.468 -335.41)" fill="#fff"/>
      </g>
    </g>
  </g>
</svg>
